<svg width="24" height="24" xmlns="http://www.w3.org/2000/svg" xmlns:xlink="http://www.w3.org/1999/xlink" fill="#5f6368"><defs><filter x="0%" y="0%" width="100%" height="100%" filterUnits="objectBoundingBox" id="a"><feOffset in="SourceAlpha" result="shadowOffsetOuter1"/><feColorMatrix values="0 0 0 0 0 0 0 0 0 0 0 0 0 0 0 0 0 0 0.5 0" in="shadowOffsetOuter1"/></filter><path d="M12 2C6.48 2 2 6.48 2 12s4.48 10 10 10 10-4.48 10-10S17.52 2 12 2ZM4 12c0-4.42 3.58-8 8-8 1.85 0 3.55.63 4.9 1.69L5.69 16.9A7.902 7.902 0 0 1 4 12Zm8 8c-1.85 0-3.55-.63-4.9-1.69L18.31 7.1A7.902 7.902 0 0 1 20 12c0 4.42-3.58 8-8 8Z" id="b"/></defs><g fill="none" fill-rule="evenodd"><path d="M0 0h24v24H0z"/><path d="M9.44 7.476a.365.365 0 0 1 .22-.457.343.343 0 0 1 .438.228l.346 1.084a.365.365 0 0 1-.22.457.343.343 0 0 1-.437-.228L9.44 7.476Zm-2.108-.009a.373.373 0 0 0 0 .512l1.154 1.204a.336.336 0 0 0 .49 0 .373.373 0 0 0 0-.51L7.822 7.466a.336.336 0 0 0-.49 0Zm4.112.734c.515-.577 1.424-.432 1.752.278l2.722 5.899a.895.895 0 0 1-.179 1.007l-.664.654a.804.804 0 0 1-.906.162l-.655-.302c-.296.65-.932 1.101-1.668 1.101-1.02 0-1.846-.863-1.846-1.928 0-.26.05-.508.139-.735l-1.579-.73c-.674-.312-.853-1.226-.35-1.79l3.234-3.616Zm-.672 6.43a1.25 1.25 0 0 0-.08.441c0 .666.517 1.205 1.154 1.205a1.15 1.15 0 0 0 1.035-.671l-2.109-.976Zm-2.157-4.258c0-.2-.155-.361-.346-.361h-.923a.354.354 0 0 0-.346.361c0 .2.155.362.346.362h.923a.354.354 0 0 0 .346-.362Z" fill="#212121" fill-rule="nonzero"/><g fill-rule="nonzero"><use fill="#000" filter="url(#a)" xlink:href="#b"/><use fill="#5f6368" xlink:href="#b"/></g></g></svg>